<svg xmlns="http://www.w3.org/2000/svg" viewBox="0 0 515.3 145.9">
<defs>
  <style>.cls-1{fill:#0095c7;}.cls-2{fill:#ff9500;}</style>
</defs>
<title>Asset 1</title>
<g id="Layer_2" data-name="Layer 2">
  <g id="Layer_1-2" data-name="Layer 1">
    <g id="wNAkkf.tif">
      <path class="cls-1" d="M280.48.16,285.16,0c.92.28,1.82.58,2.75.83a10.94,10.94,0,0,1,7.89,9.83c.33,5-1,9.11-5.48,11.7a14.91,14.91,0,0,1-9.87,1.57,12.86,12.86,0,0,1-5.56-2.08c-3.9-2.79-5.14-6.71-4.72-11.25a10.46,10.46,0,0,1,5.44-8.66A27.75,27.75,0,0,1,279.73.43Z"/>
      <path class="cls-1" d="M333.46,43.45,337.63,41a47.52,47.52,0,0,1,15.59-6.3c6.41-1.16,12.79-1.38,19,1.24a17.55,17.55,0,0,1,7.44,6c.35.48.69,1,1.12,1.59,2.1-1.21,4.15-2.44,6.24-3.59a45.2,45.2,0,0,1,16.27-5.52c4.62-.59,9.23-.79,13.78.4,7.9,2.07,12.71,7.2,14.37,15.15a40,40,0,0,1,.76,8c.07,17,0,34,0,50.94a18.82,18.82,0,0,1-.35,3.38,2.29,2.29,0,0,1-2.05,1.93,23.55,23.55,0,0,1-3.19.34c-3.89,0-7.79,0-11.68,0a12.09,12.09,0,0,1-2.39-.27,3.15,3.15,0,0,1-2.82-3.34c0-.54,0-1.07,0-1.61q0-23.86,0-47.72A12.47,12.47,0,0,0,408,54.6a7,7,0,0,0-5.5-3.28,35.58,35.58,0,0,0-16.69,2.83,2.74,2.74,0,0,0-2,3c.07,17.38,0,34.77,0,52.15a13.78,13.78,0,0,1-.3,2.78,2.48,2.48,0,0,1-2.18,2.08,17.85,17.85,0,0,1-2.58.31c-4.09,0-8.19,0-12.28,0h-.4c-3.7-.11-4.8-1.46-4.78-4.89.08-15.77,0-31.54,0-47.32a15.21,15.21,0,0,0-1.08-6.69A7.17,7.17,0,0,0,354,51.3a35.11,35.11,0,0,0-17,3.14c-1.36.59-1.43,1.53-1.43,2.73q0,25.67,0,51.34a21.94,21.94,0,0,1-.34,3.59,2.36,2.36,0,0,1-2.18,2,7.45,7.45,0,0,1-1,.17c-5.16,0-10.33.19-15.48,0-2.59-.09-3.49-1.39-3.49-4q0-35.24,0-70.47c0-2.6.94-3.6,3.64-3.79,1.67-.11,3.35,0,5,0s3.49,0,5.24,0c3.39,0,4.55.93,5.46,4.16C332.71,41.23,333.06,42.22,333.46,43.45Z"/>
      <path class="cls-1" d="M141.65,109.14v2.35q0,14.2,0,28.39c0,.4,0,.81,0,1.21a4.83,4.83,0,0,1-4.81,4.8c-4.29,0-8.59,0-12.88,0h-.6c-3.19-.11-4.2-1.12-4.2-4.31q0-23,0-45.91,0-27.49,0-55c0-3.7.91-4.62,4.64-4.65q4.63,0,9.26,0a15.84,15.84,0,0,1,2,.2,3.68,3.68,0,0,1,3.21,2.92c.37,1.27.71,2.56,1.07,3.89,2.13-1.46,4-2.95,6.1-4.16a34.73,34.73,0,0,1,17.59-5,33.4,33.4,0,0,1,12.23,1.92,28.41,28.41,0,0,1,13.24,10.72,40.56,40.56,0,0,1,6.4,16.35,65.4,65.4,0,0,1,.72,16.24C195,89,192,98.16,185.38,106a28,28,0,0,1-16.32,9.47,33.35,33.35,0,0,1-25.86-5.55c-.28-.19-.55-.39-.84-.56A4.33,4.33,0,0,0,141.65,109.14Zm.17-34.24c0,6.1,0,12.21,0,18.31a2.54,2.54,0,0,0,1.58,2.7c.49.22,1,.49,1.45.7a28,28,0,0,0,15.1,2.17,13.11,13.11,0,0,0,7.67-3.66A16.23,16.23,0,0,0,172,86.49a72.07,72.07,0,0,0,1.21-9.94,62.65,62.65,0,0,0-.31-7.41,31.43,31.43,0,0,0-1.78-8.83c-2-5.43-5.83-8.66-11.53-9.32a28.53,28.53,0,0,0-16.2,3,2.52,2.52,0,0,0-1.6,2.65C141.85,62.7,141.82,68.8,141.82,74.91Z"/>
      <path class="cls-1" d="M466.32,80.87A21.37,21.37,0,0,0,470,92.7c2.93,4.16,7.33,5.86,12.22,6.55,8.32,1.18,16.42-.15,24.45-2.19.71-.18,1.42-.42,2.14-.54,1.73-.29,3.08.55,3.14,2.26.12,3.42.1,6.84,0,10.26a3.48,3.48,0,0,1-2.62,3c-2.32.86-4.66,1.72-7,2.38a65,65,0,0,1-22.12,2,39.69,39.69,0,0,1-17.79-5.17A31.25,31.25,0,0,1,448.7,94.72a52.26,52.26,0,0,1-2.84-13.92,60.83,60.83,0,0,1,1.31-17.94A37.67,37.67,0,0,1,455.37,46c5.72-6.71,13.1-10.32,21.66-11.59a48.27,48.27,0,0,1,19.35.74c6.56,1.7,11.91,5.14,15.55,11A21.94,21.94,0,0,1,515.25,57c.2,4.34-.15,8.56-2.21,12.51a19.43,19.43,0,0,1-7.43,7.73,35.3,35.3,0,0,1-15.46,4.66c-3.67.31-7.36.33-11,.44a50.43,50.43,0,0,1-11.56-1.24Zm.2-13.7c3.9,1.17,7.74,1.12,11.51,1.36a38.15,38.15,0,0,0,7.39-.4,16.08,16.08,0,0,0,4.79-1.41c3.63-1.75,5.23-5.72,4.34-10.08a8,8,0,0,0-5.85-6.49,18.31,18.31,0,0,0-11.24.19,12.48,12.48,0,0,0-5.7,3.63C468.55,57.71,467.2,62.2,466.52,67.18Z"/>
      <path class="cls-1" d="M232,47.51c.95-.94,1.57-1.63,2.27-2.23,2.07-1.8,4.06-3.72,6.28-5.33a23.8,23.8,0,0,1,11.92-4.42,17.58,17.58,0,0,1,6,0c2,.49,2.61,1.15,2.62,3.2q.05,6.94,0,13.89c0,2-.64,2.78-2.61,3.22a6.89,6.89,0,0,1-2.38.18c-7.13-1-14,.19-20.79,2.34-2,.64-2,.69-2,2.82q0,24.05,0,48.11a13.42,13.42,0,0,1-.31,2.78,2.49,2.49,0,0,1-2.18,2.08,18.21,18.21,0,0,1-2.58.31c-4.09,0-8.19,0-12.28,0h-.4c-3.84-.12-4.8-1.5-4.79-4.88q.07-34.32,0-68.64c0-4,.88-4.89,4.82-4.91,3,0,5.9,0,8.86,0a15.89,15.89,0,0,1,1.61.06,4.22,4.22,0,0,1,4,3.6c.39,1.77.84,3.52,1.27,5.28C231.48,45.7,231.7,46.4,232,47.51Z"/>
      <path class="cls-1" d="M294.65,75.39c0,11.48,0,23,0,34.43,0,3.61-.68,4.45-4.47,4.62-4.42.2-8.86.07-13.29,0a11.29,11.29,0,0,1-2.38-.38,2.51,2.51,0,0,1-2-2.22,22.78,22.78,0,0,1-.36-3.39q0-33.2,0-66.41a15.46,15.46,0,0,1,.18-2.38c.4-2.57.76-3.38,3.12-3.46q8-.27,16.09,0c2.41.07,3.07,1.1,3.13,3.55,0,.74,0,1.48,0,2.21Q294.65,58.68,294.65,75.39Z"/>
    </g>
    <path class="cls-2" d="M24.31,79l20,25L85.58,37.21A2.49,2.49,0,0,1,87.69,36h22a2.49,2.49,0,0,1,2.08,3.85L48.18,137.16a2.49,2.49,0,0,1-4,.2L.55,83.07a2.49,2.49,0,0,1,1.94-4Z"/>
  </g>
</g>
</svg>